<?xml version="1.0" encoding="UTF-8" standalone="no"?>
<!DOCTYPE svg PUBLIC "-//W3C//DTD SVG 1.1//EN"
 "http://www.w3.org/Graphics/SVG/1.1/DTD/svg11.dtd">
<!-- Generated by graphviz version 2.38.0 (20140413.2041)
 -->
<!-- Title: output Pages: 1 -->
<svg width="621pt" height="2123pt"
 viewBox="0.00 0.00 621.00 2123.00" xmlns="http://www.w3.org/2000/svg" xmlns:xlink="http://www.w3.org/1999/xlink">
<g id="graph0" class="graph" transform="scale(1 1) rotate(0) translate(4 2119)">
<title>output</title>
<polygon fill="white" stroke="none" points="-4,4 -4,-2119 617,-2119 617,4 -4,4"/>
<!-- Legend -->
<g id="node1" class="node"><title>Legend</title>
<polygon fill="#e0e0e0" stroke="none" points="8.5,-2060.5 8.5,-2083.5 209.5,-2083.5 209.5,-2060.5 8.5,-2060.5"/>
<polygon fill="none" stroke="black" points="8.5,-2060.5 8.5,-2083.5 209.5,-2083.5 209.5,-2060.5 8.5,-2060.5"/>
<text text-anchor="start" x="93" y="-2068.3" font-family="Times,serif" font-size="14.00">Layer</text>
<polygon fill="#88ffff" stroke="none" points="8.5,-2022.5 8.5,-2060.5 89.5,-2060.5 89.5,-2022.5 8.5,-2022.5"/>
<polygon fill="none" stroke="black" points="8.5,-2022.5 8.5,-2060.5 89.5,-2060.5 89.5,-2022.5 8.5,-2022.5"/>
<text text-anchor="start" x="12.5" y="-2045.3" font-family="Times,serif" font-size="14.00"> Complexity </text>
<text text-anchor="start" x="15" y="-2030.3" font-family="Times,serif" font-size="14.00"> (MFLOPs) </text>
<polygon fill="#ff88ff" stroke="none" points="89.5,-2022.5 89.5,-2060.5 164.5,-2060.5 164.5,-2022.5 89.5,-2022.5"/>
<polygon fill="none" stroke="black" points="89.5,-2022.5 89.5,-2060.5 164.5,-2060.5 164.5,-2022.5 89.5,-2022.5"/>
<text text-anchor="start" x="93.5" y="-2045.3" font-family="Times,serif" font-size="14.00"> Bandwidth </text>
<text text-anchor="start" x="103" y="-2030.3" font-family="Times,serif" font-size="14.00"> (MB/s) </text>
<polygon fill="#ffff88" stroke="none" points="164.5,-2022.5 164.5,-2060.5 209.5,-2060.5 209.5,-2022.5 164.5,-2022.5"/>
<polygon fill="none" stroke="black" points="164.5,-2022.5 164.5,-2060.5 209.5,-2060.5 209.5,-2022.5 164.5,-2022.5"/>
<text text-anchor="start" x="168.5" y="-2045.3" font-family="Times,serif" font-size="14.00"> Time </text>
<text text-anchor="start" x="172" y="-2030.3" font-family="Times,serif" font-size="14.00"> (ms)</text>
</g>
<!-- Input -->
<g id="node2" class="node"><title>Input</title>
<ellipse fill="none" stroke="black" cx="314.5" cy="-2053.5" rx="79.8859" ry="18"/>
<text text-anchor="middle" x="314.5" y="-2049.8" font-family="Times,serif" font-size="14.00">input: (448, 448, 3)</text>
</g>
<!-- data -->
<g id="node3" class="node"><title>data</title>
<polygon fill="#a3a3a3" stroke="none" points="111.5,-1801 111.5,-1824 301.5,-1824 301.5,-1801 111.5,-1801"/>
<polygon fill="none" stroke="black" points="111.5,-1801 111.5,-1824 301.5,-1824 301.5,-1801 111.5,-1801"/>
<text text-anchor="start" x="195" y="-1808.8" font-family="Times,serif" font-size="14.00">data</text>
<polygon fill="#dddddd" stroke="none" points="111.5,-1778 111.5,-1801 301.5,-1801 301.5,-1778 111.5,-1778"/>
<polygon fill="none" stroke="black" points="111.5,-1778 111.5,-1801 301.5,-1801 301.5,-1778 111.5,-1778"/>
<text text-anchor="start" x="170.5" y="-1785.8" font-family="Times,serif" font-size="14.00">(3, 448, 448)</text>
<polygon fill="#b1f1ef" stroke="none" points="111.5,-1740 111.5,-1778 187.5,-1778 187.5,-1740 111.5,-1740"/>
<polygon fill="none" stroke="black" points="111.5,-1740 111.5,-1778 187.5,-1778 187.5,-1740 111.5,-1740"/>
<text text-anchor="start" x="137" y="-1762.8" font-family="Times,serif" font-size="14.00"> 0.0 </text>
<text text-anchor="start" x="115.5" y="-1747.8" font-family="Times,serif" font-size="14.00"> (MFLOPs) </text>
<polygon fill="#b2189e" stroke="none" points="187.5,-1740 187.5,-1778 261.5,-1778 261.5,-1740 187.5,-1740"/>
<polygon fill="none" stroke="black" points="187.5,-1740 187.5,-1778 261.5,-1778 261.5,-1740 187.5,-1740"/>
<text text-anchor="start" x="191.5" y="-1762.8" font-family="Times,serif" font-size="14.00"> 362857.27 </text>
<text text-anchor="start" x="200.5" y="-1747.8" font-family="Times,serif" font-size="14.00"> (MB/s) </text>
<polygon fill="#ffffcc" stroke="none" points="261.5,-1740 261.5,-1778 301.5,-1778 301.5,-1740 261.5,-1740"/>
<polygon fill="none" stroke="black" points="261.5,-1740 261.5,-1778 301.5,-1778 301.5,-1740 261.5,-1740"/>
<text text-anchor="start" x="265.5" y="-1762.8" font-family="Times,serif" font-size="14.00"> 0.00 </text>
<text text-anchor="start" x="266.5" y="-1747.8" font-family="Times,serif" font-size="14.00"> (ms)</text>
</g>
<!-- Input&#45;&gt;data -->
<g id="edge1" class="edge"><title>Input&#45;&gt;data</title>
<path fill="none" stroke="black" d="M307.58,-2035.23C291.914,-1996.14 253.179,-1899.48 228.465,-1837.81"/>
<polygon fill="black" stroke="black" points="231.594,-1836.21 224.625,-1828.23 225.096,-1838.81 231.594,-1836.21"/>
</g>
<!-- scale1 -->
<g id="node4" class="node"><title>scale1</title>
<polygon fill="#a3a3a3" stroke="none" points="309.5,-1929 309.5,-1952 490.5,-1952 490.5,-1929 309.5,-1929"/>
<polygon fill="none" stroke="black" points="309.5,-1929 309.5,-1952 490.5,-1952 490.5,-1929 309.5,-1929"/>
<text text-anchor="start" x="383" y="-1936.8" font-family="Times,serif" font-size="14.00">scale1</text>
<polygon fill="#dddddd" stroke="none" points="309.5,-1906 309.5,-1929 490.5,-1929 490.5,-1906 309.5,-1906"/>
<polygon fill="none" stroke="black" points="309.5,-1906 309.5,-1929 490.5,-1929 490.5,-1906 309.5,-1906"/>
<text text-anchor="start" x="360.5" y="-1913.8" font-family="Times,serif" font-size="14.00">(16, 448, 448)</text>
<polygon fill="#7fe5df" stroke="none" points="309.5,-1868 309.5,-1906 390.5,-1906 390.5,-1868 309.5,-1868"/>
<polygon fill="none" stroke="black" points="309.5,-1868 309.5,-1906 390.5,-1906 390.5,-1868 309.5,-1868"/>
<text text-anchor="start" x="313.5" y="-1890.8" font-family="Times,serif" font-size="14.00"> 173.408256 </text>
<text text-anchor="start" x="316" y="-1875.8" font-family="Times,serif" font-size="14.00"> (MFLOPs) </text>
<polygon fill="#fee4fb" stroke="none" points="390.5,-1868 390.5,-1906 450.5,-1906 450.5,-1868 390.5,-1868"/>
<polygon fill="none" stroke="black" points="390.5,-1868 390.5,-1906 450.5,-1906 450.5,-1868 390.5,-1868"/>
<text text-anchor="start" x="394.5" y="-1890.8" font-family="Times,serif" font-size="14.00"> 1174.53 </text>
<text text-anchor="start" x="396.5" y="-1875.8" font-family="Times,serif" font-size="14.00"> (MB/s) </text>
<polygon fill="#ffff5e" stroke="none" points="450.5,-1868 450.5,-1906 490.5,-1906 490.5,-1868 450.5,-1868"/>
<polygon fill="none" stroke="black" points="450.5,-1868 450.5,-1906 490.5,-1906 490.5,-1868 450.5,-1868"/>
<text text-anchor="start" x="454.5" y="-1890.8" font-family="Times,serif" font-size="14.00"> 8.80 </text>
<text text-anchor="start" x="455.5" y="-1875.8" font-family="Times,serif" font-size="14.00"> (ms)</text>
</g>
<!-- Input&#45;&gt;scale1 -->
<g id="edge2" class="edge"><title>Input&#45;&gt;scale1</title>
<path fill="none" stroke="black" d="M324.753,-2035.43C335.259,-2017.94 352.144,-1989.83 367.21,-1964.75"/>
<polygon fill="black" stroke="black" points="370.3,-1966.41 372.449,-1956.03 364.3,-1962.8 370.3,-1966.41"/>
</g>
<!-- Output -->
<g id="node19" class="node"><title>Output</title>
<ellipse fill="none" stroke="black" cx="313.5" cy="-18" rx="97.4827" ry="18"/>
<text text-anchor="middle" x="313.5" y="-14.3" font-family="Times,serif" font-size="14.00">output: [448, 448, 1473]</text>
</g>
<!-- data&#45;&gt;Output -->
<g id="edge17" class="edge"><title>data&#45;&gt;Output</title>
<path fill="none" stroke="black" d="M218.822,-1735.97C231.528,-1685.49 249.5,-1601.02 249.5,-1527 249.5,-1527 249.5,-1527 249.5,-245 249.5,-167.599 239.075,-143.17 269.5,-72 273.917,-61.6669 281.02,-51.7786 288.242,-43.4008"/>
<polygon fill="black" stroke="black" points="290.963,-45.6118 295.118,-35.866 285.792,-40.893 290.963,-45.6118"/>
</g>
<!-- pool1 -->
<g id="node5" class="node"><title>pool1</title>
<polygon fill="#a3a3a3" stroke="none" points="335.5,-1801 335.5,-1824 507.5,-1824 507.5,-1801 335.5,-1801"/>
<polygon fill="none" stroke="black" points="335.5,-1801 335.5,-1824 507.5,-1824 507.5,-1801 335.5,-1801"/>
<text text-anchor="start" x="406" y="-1808.8" font-family="Times,serif" font-size="14.00">pool1</text>
<polygon fill="#dddddd" stroke="none" points="335.5,-1778 335.5,-1801 507.5,-1801 507.5,-1778 335.5,-1778"/>
<polygon fill="none" stroke="black" points="335.5,-1778 335.5,-1801 507.5,-1801 507.5,-1778 335.5,-1778"/>
<text text-anchor="start" x="382" y="-1785.8" font-family="Times,serif" font-size="14.00">(16, 224, 224)</text>
<polygon fill="#b0f0ee" stroke="none" points="335.5,-1740 335.5,-1778 411.5,-1778 411.5,-1740 335.5,-1740"/>
<polygon fill="none" stroke="black" points="335.5,-1740 335.5,-1778 411.5,-1778 411.5,-1740 335.5,-1740"/>
<text text-anchor="start" x="344" y="-1762.8" font-family="Times,serif" font-size="14.00"> 3.211264 </text>
<text text-anchor="start" x="339.5" y="-1747.8" font-family="Times,serif" font-size="14.00"> (MFLOPs) </text>
<polygon fill="#fee4fb" stroke="none" points="411.5,-1740 411.5,-1778 467.5,-1778 467.5,-1740 411.5,-1740"/>
<polygon fill="none" stroke="black" points="411.5,-1740 411.5,-1778 467.5,-1778 467.5,-1740 411.5,-1740"/>
<text text-anchor="start" x="416.5" y="-1762.8" font-family="Times,serif" font-size="14.00"> 791.38 </text>
<text text-anchor="start" x="415.5" y="-1747.8" font-family="Times,serif" font-size="14.00"> (MB/s) </text>
<polygon fill="#ffff6b" stroke="none" points="467.5,-1740 467.5,-1778 507.5,-1778 507.5,-1740 467.5,-1740"/>
<polygon fill="none" stroke="black" points="467.5,-1740 467.5,-1778 507.5,-1778 507.5,-1740 467.5,-1740"/>
<text text-anchor="start" x="471.5" y="-1762.8" font-family="Times,serif" font-size="14.00"> 7.74 </text>
<text text-anchor="start" x="472.5" y="-1747.8" font-family="Times,serif" font-size="14.00"> (ms)</text>
</g>
<!-- scale1&#45;&gt;pool1 -->
<g id="edge3" class="edge"><title>scale1&#45;&gt;pool1</title>
<path fill="none" stroke="black" d="M407.38,-1863.87C408.834,-1855.54 410.366,-1846.77 411.864,-1838.19"/>
<polygon fill="black" stroke="black" points="415.328,-1838.69 413.601,-1828.24 408.433,-1837.49 415.328,-1838.69"/>
</g>
<!-- scale2 -->
<g id="node6" class="node"><title>scale2</title>
<polygon fill="#a3a3a3" stroke="none" points="328.5,-1673 328.5,-1696 512.5,-1696 512.5,-1673 328.5,-1673"/>
<polygon fill="none" stroke="black" points="328.5,-1673 328.5,-1696 512.5,-1696 512.5,-1673 328.5,-1673"/>
<text text-anchor="start" x="403.5" y="-1680.8" font-family="Times,serif" font-size="14.00">scale2</text>
<polygon fill="#dddddd" stroke="none" points="328.5,-1650 328.5,-1673 512.5,-1673 512.5,-1650 328.5,-1650"/>
<polygon fill="none" stroke="black" points="328.5,-1650 328.5,-1673 512.5,-1673 512.5,-1650 328.5,-1650"/>
<text text-anchor="start" x="381" y="-1657.8" font-family="Times,serif" font-size="14.00">(32, 224, 224)</text>
<polygon fill="#2ed1c6" stroke="none" points="328.5,-1612 328.5,-1650 409.5,-1650 409.5,-1612 328.5,-1612"/>
<polygon fill="none" stroke="black" points="328.5,-1612 328.5,-1650 409.5,-1650 409.5,-1612 328.5,-1612"/>
<text text-anchor="start" x="332.5" y="-1634.8" font-family="Times,serif" font-size="14.00"> 462.422016 </text>
<text text-anchor="start" x="335" y="-1619.8" font-family="Times,serif" font-size="14.00"> (MFLOPs) </text>
<polygon fill="#fee4fb" stroke="none" points="409.5,-1612 409.5,-1650 465.5,-1650 465.5,-1612 409.5,-1612"/>
<polygon fill="none" stroke="black" points="409.5,-1612 409.5,-1650 465.5,-1650 465.5,-1612 409.5,-1612"/>
<text text-anchor="start" x="414.5" y="-1634.8" font-family="Times,serif" font-size="14.00"> 882.48 </text>
<text text-anchor="start" x="413.5" y="-1619.8" font-family="Times,serif" font-size="14.00"> (MB/s) </text>
<polygon fill="#ffff09" stroke="none" points="465.5,-1612 465.5,-1650 512.5,-1650 512.5,-1612 465.5,-1612"/>
<polygon fill="none" stroke="black" points="465.5,-1612 465.5,-1650 512.5,-1650 512.5,-1612 465.5,-1612"/>
<text text-anchor="start" x="469.5" y="-1634.8" font-family="Times,serif" font-size="14.00"> 15.63 </text>
<text text-anchor="start" x="474" y="-1619.8" font-family="Times,serif" font-size="14.00"> (ms)</text>
</g>
<!-- pool1&#45;&gt;scale2 -->
<g id="edge4" class="edge"><title>pool1&#45;&gt;scale2</title>
<path fill="none" stroke="black" d="M421.142,-1735.87C421.076,-1727.63 421.008,-1718.96 420.94,-1710.47"/>
<polygon fill="black" stroke="black" points="424.438,-1710.21 420.859,-1700.24 417.439,-1710.27 424.438,-1710.21"/>
</g>
<!-- pool2 -->
<g id="node7" class="node"><title>pool2</title>
<polygon fill="#a3a3a3" stroke="none" points="323.5,-1545 323.5,-1568 495.5,-1568 495.5,-1545 323.5,-1545"/>
<polygon fill="none" stroke="black" points="323.5,-1545 323.5,-1568 495.5,-1568 495.5,-1545 323.5,-1545"/>
<text text-anchor="start" x="394" y="-1552.8" font-family="Times,serif" font-size="14.00">pool2</text>
<polygon fill="#dddddd" stroke="none" points="323.5,-1522 323.5,-1545 495.5,-1545 495.5,-1522 323.5,-1522"/>
<polygon fill="none" stroke="black" points="323.5,-1522 323.5,-1545 495.5,-1545 495.5,-1522 323.5,-1522"/>
<text text-anchor="start" x="370" y="-1529.8" font-family="Times,serif" font-size="14.00">(32, 112, 112)</text>
<polygon fill="#b0f0ee" stroke="none" points="323.5,-1484 323.5,-1522 399.5,-1522 399.5,-1484 323.5,-1484"/>
<polygon fill="none" stroke="black" points="323.5,-1484 323.5,-1522 399.5,-1522 399.5,-1484 323.5,-1484"/>
<text text-anchor="start" x="332" y="-1506.8" font-family="Times,serif" font-size="14.00"> 1.605632 </text>
<text text-anchor="start" x="327.5" y="-1491.8" font-family="Times,serif" font-size="14.00"> (MFLOPs) </text>
<polygon fill="#fee4fb" stroke="none" points="399.5,-1484 399.5,-1522 455.5,-1522 455.5,-1484 399.5,-1484"/>
<polygon fill="none" stroke="black" points="399.5,-1484 399.5,-1522 455.5,-1522 455.5,-1484 399.5,-1484"/>
<text text-anchor="start" x="404.5" y="-1506.8" font-family="Times,serif" font-size="14.00"> 929.99 </text>
<text text-anchor="start" x="403.5" y="-1491.8" font-family="Times,serif" font-size="14.00"> (MB/s) </text>
<polygon fill="#ffffa3" stroke="none" points="455.5,-1484 455.5,-1522 495.5,-1522 495.5,-1484 455.5,-1484"/>
<polygon fill="none" stroke="black" points="455.5,-1484 455.5,-1522 495.5,-1522 495.5,-1484 455.5,-1484"/>
<text text-anchor="start" x="459.5" y="-1506.8" font-family="Times,serif" font-size="14.00"> 3.29 </text>
<text text-anchor="start" x="460.5" y="-1491.8" font-family="Times,serif" font-size="14.00"> (ms)</text>
</g>
<!-- scale2&#45;&gt;pool2 -->
<g id="edge5" class="edge"><title>scale2&#45;&gt;pool2</title>
<path fill="none" stroke="black" d="M416.56,-1607.87C415.841,-1599.63 415.084,-1590.96 414.342,-1582.47"/>
<polygon fill="black" stroke="black" points="417.806,-1581.9 413.45,-1572.24 410.833,-1582.51 417.806,-1581.9"/>
</g>
<!-- scale3 -->
<g id="node8" class="node"><title>scale3</title>
<polygon fill="#a3a3a3" stroke="none" points="295.5,-1417 295.5,-1440 479.5,-1440 479.5,-1417 295.5,-1417"/>
<polygon fill="none" stroke="black" points="295.5,-1417 295.5,-1440 479.5,-1440 479.5,-1417 295.5,-1417"/>
<text text-anchor="start" x="370.5" y="-1424.8" font-family="Times,serif" font-size="14.00">scale3</text>
<polygon fill="#dddddd" stroke="none" points="295.5,-1394 295.5,-1417 479.5,-1417 479.5,-1394 295.5,-1394"/>
<polygon fill="none" stroke="black" points="295.5,-1394 295.5,-1417 479.5,-1417 479.5,-1394 295.5,-1394"/>
<text text-anchor="start" x="348" y="-1401.8" font-family="Times,serif" font-size="14.00">(64, 112, 112)</text>
<polygon fill="#2ed1c6" stroke="none" points="295.5,-1356 295.5,-1394 376.5,-1394 376.5,-1356 295.5,-1356"/>
<polygon fill="none" stroke="black" points="295.5,-1356 295.5,-1394 376.5,-1394 376.5,-1356 295.5,-1356"/>
<text text-anchor="start" x="299.5" y="-1378.8" font-family="Times,serif" font-size="14.00"> 462.422016 </text>
<text text-anchor="start" x="302" y="-1363.8" font-family="Times,serif" font-size="14.00"> (MFLOPs) </text>
<polygon fill="#fee4fb" stroke="none" points="376.5,-1356 376.5,-1394 432.5,-1394 432.5,-1356 376.5,-1356"/>
<polygon fill="none" stroke="black" points="376.5,-1356 376.5,-1394 432.5,-1394 432.5,-1356 376.5,-1356"/>
<text text-anchor="start" x="381.5" y="-1378.8" font-family="Times,serif" font-size="14.00"> 658.94 </text>
<text text-anchor="start" x="380.5" y="-1363.8" font-family="Times,serif" font-size="14.00"> (MB/s) </text>
<polygon fill="#ffff49" stroke="none" points="432.5,-1356 432.5,-1394 479.5,-1394 479.5,-1356 432.5,-1356"/>
<polygon fill="none" stroke="black" points="432.5,-1356 432.5,-1394 479.5,-1394 479.5,-1356 432.5,-1356"/>
<text text-anchor="start" x="436.5" y="-1378.8" font-family="Times,serif" font-size="14.00"> 10.51 </text>
<text text-anchor="start" x="441" y="-1363.8" font-family="Times,serif" font-size="14.00"> (ms)</text>
</g>
<!-- pool2&#45;&gt;scale3 -->
<g id="edge6" class="edge"><title>pool2&#45;&gt;scale3</title>
<path fill="none" stroke="black" d="M401.62,-1479.87C400.166,-1471.54 398.634,-1462.77 397.136,-1454.19"/>
<polygon fill="black" stroke="black" points="400.567,-1453.49 395.399,-1444.24 393.672,-1454.69 400.567,-1453.49"/>
</g>
<!-- pool3 -->
<g id="node9" class="node"><title>pool3</title>
<polygon fill="#a3a3a3" stroke="none" points="298.5,-1289 298.5,-1312 470.5,-1312 470.5,-1289 298.5,-1289"/>
<polygon fill="none" stroke="black" points="298.5,-1289 298.5,-1312 470.5,-1312 470.5,-1289 298.5,-1289"/>
<text text-anchor="start" x="369" y="-1296.8" font-family="Times,serif" font-size="14.00">pool3</text>
<polygon fill="#dddddd" stroke="none" points="298.5,-1266 298.5,-1289 470.5,-1289 470.5,-1266 298.5,-1266"/>
<polygon fill="none" stroke="black" points="298.5,-1266 298.5,-1289 470.5,-1289 470.5,-1266 298.5,-1266"/>
<text text-anchor="start" x="352" y="-1273.8" font-family="Times,serif" font-size="14.00">(64, 56, 56)</text>
<polygon fill="#b0f0ee" stroke="none" points="298.5,-1228 298.5,-1266 374.5,-1266 374.5,-1228 298.5,-1228"/>
<polygon fill="none" stroke="black" points="298.5,-1228 298.5,-1266 374.5,-1266 374.5,-1228 298.5,-1228"/>
<text text-anchor="start" x="307" y="-1250.8" font-family="Times,serif" font-size="14.00"> 0.802816 </text>
<text text-anchor="start" x="302.5" y="-1235.8" font-family="Times,serif" font-size="14.00"> (MFLOPs) </text>
<polygon fill="#fee4fb" stroke="none" points="374.5,-1228 374.5,-1266 430.5,-1266 430.5,-1228 374.5,-1228"/>
<polygon fill="none" stroke="black" points="374.5,-1228 374.5,-1266 430.5,-1266 430.5,-1228 374.5,-1228"/>
<text text-anchor="start" x="379.5" y="-1250.8" font-family="Times,serif" font-size="14.00"> 960.07 </text>
<text text-anchor="start" x="378.5" y="-1235.8" font-family="Times,serif" font-size="14.00"> (MB/s) </text>
<polygon fill="#ffffb8" stroke="none" points="430.5,-1228 430.5,-1266 470.5,-1266 470.5,-1228 430.5,-1228"/>
<polygon fill="none" stroke="black" points="430.5,-1228 430.5,-1266 470.5,-1266 470.5,-1228 430.5,-1228"/>
<text text-anchor="start" x="434.5" y="-1250.8" font-family="Times,serif" font-size="14.00"> 1.60 </text>
<text text-anchor="start" x="435.5" y="-1235.8" font-family="Times,serif" font-size="14.00"> (ms)</text>
</g>
<!-- scale3&#45;&gt;pool3 -->
<g id="edge7" class="edge"><title>scale3&#45;&gt;pool3</title>
<path fill="none" stroke="black" d="M386.425,-1351.87C386.229,-1343.63 386.023,-1334.96 385.821,-1326.47"/>
<polygon fill="black" stroke="black" points="389.314,-1326.16 385.577,-1316.24 382.316,-1326.32 389.314,-1326.16"/>
</g>
<!-- scale4 -->
<g id="node10" class="node"><title>scale4</title>
<polygon fill="#a3a3a3" stroke="none" points="291.5,-1161 291.5,-1184 468.5,-1184 468.5,-1161 291.5,-1161"/>
<polygon fill="none" stroke="black" points="291.5,-1161 291.5,-1184 468.5,-1184 468.5,-1161 291.5,-1161"/>
<text text-anchor="start" x="363" y="-1168.8" font-family="Times,serif" font-size="14.00">scale4</text>
<polygon fill="#dddddd" stroke="none" points="291.5,-1138 291.5,-1161 468.5,-1161 468.5,-1138 291.5,-1138"/>
<polygon fill="none" stroke="black" points="291.5,-1138 291.5,-1161 468.5,-1161 468.5,-1138 291.5,-1138"/>
<text text-anchor="start" x="344" y="-1145.8" font-family="Times,serif" font-size="14.00">(128, 56, 56)</text>
<polygon fill="#2ed1c6" stroke="none" points="291.5,-1100 291.5,-1138 372.5,-1138 372.5,-1100 291.5,-1100"/>
<polygon fill="none" stroke="black" points="291.5,-1100 291.5,-1138 372.5,-1138 372.5,-1100 291.5,-1100"/>
<text text-anchor="start" x="295.5" y="-1122.8" font-family="Times,serif" font-size="14.00"> 462.422016 </text>
<text text-anchor="start" x="298" y="-1107.8" font-family="Times,serif" font-size="14.00"> (MFLOPs) </text>
<polygon fill="#fee4fb" stroke="none" points="372.5,-1100 372.5,-1138 428.5,-1138 428.5,-1100 372.5,-1100"/>
<polygon fill="none" stroke="black" points="372.5,-1100 372.5,-1138 428.5,-1138 428.5,-1100 372.5,-1100"/>
<text text-anchor="start" x="377.5" y="-1122.8" font-family="Times,serif" font-size="14.00"> 410.11 </text>
<text text-anchor="start" x="376.5" y="-1107.8" font-family="Times,serif" font-size="14.00"> (MB/s) </text>
<polygon fill="#ffff5f" stroke="none" points="428.5,-1100 428.5,-1138 468.5,-1138 468.5,-1100 428.5,-1100"/>
<polygon fill="none" stroke="black" points="428.5,-1100 428.5,-1138 468.5,-1138 468.5,-1100 428.5,-1100"/>
<text text-anchor="start" x="432.5" y="-1122.8" font-family="Times,serif" font-size="14.00"> 8.75 </text>
<text text-anchor="start" x="433.5" y="-1107.8" font-family="Times,serif" font-size="14.00"> (ms)</text>
</g>
<!-- pool3&#45;&gt;scale4 -->
<g id="edge8" class="edge"><title>pool3&#45;&gt;scale4</title>
<path fill="none" stroke="black" d="M382.709,-1223.87C382.382,-1215.63 382.038,-1206.96 381.701,-1198.47"/>
<polygon fill="black" stroke="black" points="385.189,-1198.09 381.295,-1188.24 378.195,-1198.37 385.189,-1198.09"/>
</g>
<!-- pool4 -->
<g id="node11" class="node"><title>pool4</title>
<polygon fill="#a3a3a3" stroke="none" points="292.5,-1033 292.5,-1056 464.5,-1056 464.5,-1033 292.5,-1033"/>
<polygon fill="none" stroke="black" points="292.5,-1033 292.5,-1056 464.5,-1056 464.5,-1033 292.5,-1033"/>
<text text-anchor="start" x="363" y="-1040.8" font-family="Times,serif" font-size="14.00">pool4</text>
<polygon fill="#dddddd" stroke="none" points="292.5,-1010 292.5,-1033 464.5,-1033 464.5,-1010 292.5,-1010"/>
<polygon fill="none" stroke="black" points="292.5,-1010 292.5,-1033 464.5,-1033 464.5,-1010 292.5,-1010"/>
<text text-anchor="start" x="342.5" y="-1017.8" font-family="Times,serif" font-size="14.00">(128, 28, 28)</text>
<polygon fill="#b0f0ee" stroke="none" points="292.5,-972 292.5,-1010 368.5,-1010 368.5,-972 292.5,-972"/>
<polygon fill="none" stroke="black" points="292.5,-972 292.5,-1010 368.5,-1010 368.5,-972 292.5,-972"/>
<text text-anchor="start" x="301" y="-994.8" font-family="Times,serif" font-size="14.00"> 0.401408 </text>
<text text-anchor="start" x="296.5" y="-979.8" font-family="Times,serif" font-size="14.00"> (MFLOPs) </text>
<polygon fill="#fee4fb" stroke="none" points="368.5,-972 368.5,-1010 424.5,-1010 424.5,-972 368.5,-972"/>
<polygon fill="none" stroke="black" points="368.5,-972 368.5,-1010 424.5,-1010 424.5,-972 368.5,-972"/>
<text text-anchor="start" x="373.5" y="-994.8" font-family="Times,serif" font-size="14.00"> 947.45 </text>
<text text-anchor="start" x="372.5" y="-979.8" font-family="Times,serif" font-size="14.00"> (MB/s) </text>
<polygon fill="#ffffc1" stroke="none" points="424.5,-972 424.5,-1010 464.5,-1010 464.5,-972 424.5,-972"/>
<polygon fill="none" stroke="black" points="424.5,-972 424.5,-1010 464.5,-1010 464.5,-972 424.5,-972"/>
<text text-anchor="start" x="428.5" y="-994.8" font-family="Times,serif" font-size="14.00"> 0.81 </text>
<text text-anchor="start" x="429.5" y="-979.8" font-family="Times,serif" font-size="14.00"> (ms)</text>
</g>
<!-- scale4&#45;&gt;pool4 -->
<g id="edge9" class="edge"><title>scale4&#45;&gt;pool4</title>
<path fill="none" stroke="black" d="M379.142,-1095.87C379.076,-1087.63 379.008,-1078.96 378.94,-1070.47"/>
<polygon fill="black" stroke="black" points="382.438,-1070.21 378.859,-1060.24 375.439,-1070.27 382.438,-1070.21"/>
</g>
<!-- scale5 -->
<g id="node12" class="node"><title>scale5</title>
<polygon fill="#a3a3a3" stroke="none" points="285.5,-905 285.5,-928 469.5,-928 469.5,-905 285.5,-905"/>
<polygon fill="none" stroke="black" points="285.5,-905 285.5,-928 469.5,-928 469.5,-905 285.5,-905"/>
<text text-anchor="start" x="360.5" y="-912.8" font-family="Times,serif" font-size="14.00">scale5</text>
<polygon fill="#dddddd" stroke="none" points="285.5,-882 285.5,-905 469.5,-905 469.5,-882 285.5,-882"/>
<polygon fill="none" stroke="black" points="285.5,-882 285.5,-905 469.5,-905 469.5,-882 285.5,-882"/>
<text text-anchor="start" x="341.5" y="-889.8" font-family="Times,serif" font-size="14.00">(256, 28, 28)</text>
<polygon fill="#2ed1c6" stroke="none" points="285.5,-844 285.5,-882 366.5,-882 366.5,-844 285.5,-844"/>
<polygon fill="none" stroke="black" points="285.5,-844 285.5,-882 366.5,-882 366.5,-844 285.5,-844"/>
<text text-anchor="start" x="289.5" y="-866.8" font-family="Times,serif" font-size="14.00"> 462.422016 </text>
<text text-anchor="start" x="292" y="-851.8" font-family="Times,serif" font-size="14.00"> (MFLOPs) </text>
<polygon fill="#ffe5fc" stroke="none" points="366.5,-844 366.5,-882 422.5,-882 422.5,-844 366.5,-844"/>
<polygon fill="none" stroke="black" points="366.5,-844 366.5,-882 422.5,-882 422.5,-844 366.5,-844"/>
<text text-anchor="start" x="371.5" y="-866.8" font-family="Times,serif" font-size="14.00"> 204.85 </text>
<text text-anchor="start" x="370.5" y="-851.8" font-family="Times,serif" font-size="14.00"> (MB/s) </text>
<polygon fill="#ffff41" stroke="none" points="422.5,-844 422.5,-882 469.5,-882 469.5,-844 422.5,-844"/>
<polygon fill="none" stroke="black" points="422.5,-844 422.5,-882 469.5,-882 469.5,-844 422.5,-844"/>
<text text-anchor="start" x="426.5" y="-866.8" font-family="Times,serif" font-size="14.00"> 11.16 </text>
<text text-anchor="start" x="431" y="-851.8" font-family="Times,serif" font-size="14.00"> (ms)</text>
</g>
<!-- pool4&#45;&gt;scale5 -->
<g id="edge10" class="edge"><title>pool4&#45;&gt;scale5</title>
<path fill="none" stroke="black" d="M378.142,-967.867C378.076,-959.634 378.008,-950.957 377.94,-942.465"/>
<polygon fill="black" stroke="black" points="381.438,-942.213 377.859,-932.241 374.439,-942.269 381.438,-942.213"/>
</g>
<!-- pool5 -->
<g id="node13" class="node"><title>pool5</title>
<polygon fill="#a3a3a3" stroke="none" points="291.5,-777 291.5,-800 463.5,-800 463.5,-777 291.5,-777"/>
<polygon fill="none" stroke="black" points="291.5,-777 291.5,-800 463.5,-800 463.5,-777 291.5,-777"/>
<text text-anchor="start" x="362" y="-784.8" font-family="Times,serif" font-size="14.00">pool5</text>
<polygon fill="#dddddd" stroke="none" points="291.5,-754 291.5,-777 463.5,-777 463.5,-754 291.5,-754"/>
<polygon fill="none" stroke="black" points="291.5,-754 291.5,-777 463.5,-777 463.5,-754 291.5,-754"/>
<text text-anchor="start" x="341.5" y="-761.8" font-family="Times,serif" font-size="14.00">(256, 14, 14)</text>
<polygon fill="#b0f0ee" stroke="none" points="291.5,-716 291.5,-754 367.5,-754 367.5,-716 291.5,-716"/>
<polygon fill="none" stroke="black" points="291.5,-716 291.5,-754 367.5,-754 367.5,-716 291.5,-716"/>
<text text-anchor="start" x="300" y="-738.8" font-family="Times,serif" font-size="14.00"> 0.200704 </text>
<text text-anchor="start" x="295.5" y="-723.8" font-family="Times,serif" font-size="14.00"> (MFLOPs) </text>
<polygon fill="#fee4fb" stroke="none" points="367.5,-716 367.5,-754 423.5,-754 423.5,-716 367.5,-716"/>
<polygon fill="none" stroke="black" points="367.5,-716 367.5,-754 423.5,-754 423.5,-716 367.5,-716"/>
<text text-anchor="start" x="372.5" y="-738.8" font-family="Times,serif" font-size="14.00"> 915.84 </text>
<text text-anchor="start" x="371.5" y="-723.8" font-family="Times,serif" font-size="14.00"> (MB/s) </text>
<polygon fill="#ffffc6" stroke="none" points="423.5,-716 423.5,-754 463.5,-754 463.5,-716 423.5,-716"/>
<polygon fill="none" stroke="black" points="423.5,-716 423.5,-754 463.5,-754 463.5,-716 423.5,-716"/>
<text text-anchor="start" x="427.5" y="-738.8" font-family="Times,serif" font-size="14.00"> 0.42 </text>
<text text-anchor="start" x="428.5" y="-723.8" font-family="Times,serif" font-size="14.00"> (ms)</text>
</g>
<!-- scale5&#45;&gt;pool5 -->
<g id="edge11" class="edge"><title>scale5&#45;&gt;pool5</title>
<path fill="none" stroke="black" d="M377.5,-839.867C377.5,-831.634 377.5,-822.957 377.5,-814.465"/>
<polygon fill="black" stroke="black" points="381,-814.241 377.5,-804.241 374,-814.241 381,-814.241"/>
</g>
<!-- scale6 -->
<g id="node14" class="node"><title>scale6</title>
<polygon fill="#a3a3a3" stroke="none" points="289.5,-649 289.5,-672 466.5,-672 466.5,-649 289.5,-649"/>
<polygon fill="none" stroke="black" points="289.5,-649 289.5,-672 466.5,-672 466.5,-649 289.5,-649"/>
<text text-anchor="start" x="361" y="-656.8" font-family="Times,serif" font-size="14.00">scale6</text>
<polygon fill="#dddddd" stroke="none" points="289.5,-626 289.5,-649 466.5,-649 466.5,-626 289.5,-626"/>
<polygon fill="none" stroke="black" points="289.5,-626 289.5,-649 466.5,-649 466.5,-626 289.5,-626"/>
<text text-anchor="start" x="342" y="-633.8" font-family="Times,serif" font-size="14.00">(512, 14, 14)</text>
<polygon fill="#2ed1c6" stroke="none" points="289.5,-588 289.5,-626 370.5,-626 370.5,-588 289.5,-588"/>
<polygon fill="none" stroke="black" points="289.5,-588 289.5,-626 370.5,-626 370.5,-588 289.5,-588"/>
<text text-anchor="start" x="293.5" y="-610.8" font-family="Times,serif" font-size="14.00"> 462.422016 </text>
<text text-anchor="start" x="296" y="-595.8" font-family="Times,serif" font-size="14.00"> (MFLOPs) </text>
<polygon fill="#fee4fb" stroke="none" points="370.5,-588 370.5,-626 426.5,-626 426.5,-588 370.5,-588"/>
<polygon fill="none" stroke="black" points="370.5,-588 370.5,-626 426.5,-626 426.5,-588 370.5,-588"/>
<text text-anchor="start" x="375.5" y="-610.8" font-family="Times,serif" font-size="14.00"> 360.27 </text>
<text text-anchor="start" x="374.5" y="-595.8" font-family="Times,serif" font-size="14.00"> (MB/s) </text>
<polygon fill="#ffff60" stroke="none" points="426.5,-588 426.5,-626 466.5,-626 466.5,-588 426.5,-588"/>
<polygon fill="none" stroke="black" points="426.5,-588 426.5,-626 466.5,-626 466.5,-588 426.5,-588"/>
<text text-anchor="start" x="430.5" y="-610.8" font-family="Times,serif" font-size="14.00"> 8.64 </text>
<text text-anchor="start" x="431.5" y="-595.8" font-family="Times,serif" font-size="14.00"> (ms)</text>
</g>
<!-- pool5&#45;&gt;scale6 -->
<g id="edge12" class="edge"><title>pool5&#45;&gt;scale6</title>
<path fill="none" stroke="black" d="M377.5,-711.867C377.5,-703.634 377.5,-694.957 377.5,-686.465"/>
<polygon fill="black" stroke="black" points="381,-686.241 377.5,-676.241 374,-686.241 381,-686.241"/>
</g>
<!-- pool6 -->
<g id="node15" class="node"><title>pool6</title>
<polygon fill="#a3a3a3" stroke="none" points="291.5,-521 291.5,-544 463.5,-544 463.5,-521 291.5,-521"/>
<polygon fill="none" stroke="black" points="291.5,-521 291.5,-544 463.5,-544 463.5,-521 291.5,-521"/>
<text text-anchor="start" x="362" y="-528.8" font-family="Times,serif" font-size="14.00">pool6</text>
<polygon fill="#dddddd" stroke="none" points="291.5,-498 291.5,-521 463.5,-521 463.5,-498 291.5,-498"/>
<polygon fill="none" stroke="black" points="291.5,-498 291.5,-521 463.5,-521 463.5,-498 291.5,-498"/>
<text text-anchor="start" x="348.5" y="-505.8" font-family="Times,serif" font-size="14.00">(512, 7, 7)</text>
<polygon fill="#b0f0ee" stroke="none" points="291.5,-460 291.5,-498 367.5,-498 367.5,-460 291.5,-460"/>
<polygon fill="none" stroke="black" points="291.5,-460 291.5,-498 367.5,-498 367.5,-460 291.5,-460"/>
<text text-anchor="start" x="300" y="-482.8" font-family="Times,serif" font-size="14.00"> 0.100352 </text>
<text text-anchor="start" x="295.5" y="-467.8" font-family="Times,serif" font-size="14.00"> (MFLOPs) </text>
<polygon fill="#fee4fb" stroke="none" points="367.5,-460 367.5,-498 423.5,-498 423.5,-460 367.5,-460"/>
<polygon fill="none" stroke="black" points="367.5,-460 367.5,-498 423.5,-498 423.5,-460 367.5,-460"/>
<text text-anchor="start" x="372.5" y="-482.8" font-family="Times,serif" font-size="14.00"> 891.28 </text>
<text text-anchor="start" x="371.5" y="-467.8" font-family="Times,serif" font-size="14.00"> (MB/s) </text>
<polygon fill="#ffffc9" stroke="none" points="423.5,-460 423.5,-498 463.5,-498 463.5,-460 423.5,-460"/>
<polygon fill="none" stroke="black" points="423.5,-460 423.5,-498 463.5,-498 463.5,-460 423.5,-460"/>
<text text-anchor="start" x="427.5" y="-482.8" font-family="Times,serif" font-size="14.00"> 0.21 </text>
<text text-anchor="start" x="428.5" y="-467.8" font-family="Times,serif" font-size="14.00"> (ms)</text>
</g>
<!-- scale6&#45;&gt;pool6 -->
<g id="edge13" class="edge"><title>scale6&#45;&gt;pool6</title>
<path fill="none" stroke="black" d="M377.5,-583.867C377.5,-575.634 377.5,-566.957 377.5,-558.465"/>
<polygon fill="black" stroke="black" points="381,-558.241 377.5,-548.241 374,-558.241 381,-558.241"/>
</g>
<!-- scale7 -->
<g id="node16" class="node"><title>scale7</title>
<polygon fill="#a3a3a3" stroke="none" points="285.5,-393 285.5,-416 469.5,-416 469.5,-393 285.5,-393"/>
<polygon fill="none" stroke="black" points="285.5,-393 285.5,-416 469.5,-416 469.5,-393 285.5,-393"/>
<text text-anchor="start" x="360.5" y="-400.8" font-family="Times,serif" font-size="14.00">scale7</text>
<polygon fill="#dddddd" stroke="none" points="285.5,-370 285.5,-393 469.5,-393 469.5,-370 285.5,-370"/>
<polygon fill="none" stroke="black" points="285.5,-370 285.5,-393 469.5,-393 469.5,-370 285.5,-370"/>
<text text-anchor="start" x="345" y="-377.8" font-family="Times,serif" font-size="14.00">(1024, 7, 7)</text>
<polygon fill="#2ed1c6" stroke="none" points="285.5,-332 285.5,-370 366.5,-370 366.5,-332 285.5,-332"/>
<polygon fill="none" stroke="black" points="285.5,-332 285.5,-370 366.5,-370 366.5,-332 285.5,-332"/>
<text text-anchor="start" x="289.5" y="-354.8" font-family="Times,serif" font-size="14.00"> 462.422016 </text>
<text text-anchor="start" x="292" y="-339.8" font-family="Times,serif" font-size="14.00"> (MFLOPs) </text>
<polygon fill="#fee4fb" stroke="none" points="366.5,-332 366.5,-370 422.5,-370 422.5,-332 366.5,-332"/>
<polygon fill="none" stroke="black" points="366.5,-332 366.5,-370 422.5,-370 422.5,-332 366.5,-332"/>
<text text-anchor="start" x="371.5" y="-354.8" font-family="Times,serif" font-size="14.00"> 793.26 </text>
<text text-anchor="start" x="370.5" y="-339.8" font-family="Times,serif" font-size="14.00"> (MB/s) </text>
<polygon fill="#ffff38" stroke="none" points="422.5,-332 422.5,-370 469.5,-370 469.5,-332 422.5,-332"/>
<polygon fill="none" stroke="black" points="422.5,-332 422.5,-370 469.5,-370 469.5,-332 422.5,-332"/>
<text text-anchor="start" x="426.5" y="-354.8" font-family="Times,serif" font-size="14.00"> 11.89 </text>
<text text-anchor="start" x="431" y="-339.8" font-family="Times,serif" font-size="14.00"> (ms)</text>
</g>
<!-- pool6&#45;&gt;scale7 -->
<g id="edge14" class="edge"><title>pool6&#45;&gt;scale7</title>
<path fill="none" stroke="black" d="M377.5,-455.867C377.5,-447.634 377.5,-438.957 377.5,-430.465"/>
<polygon fill="black" stroke="black" points="381,-430.241 377.5,-420.241 374,-430.241 381,-430.241"/>
</g>
<!-- scale8 -->
<g id="node17" class="node"><title>scale8</title>
<polygon fill="#a3a3a3" stroke="none" points="289.5,-265 289.5,-288 466.5,-288 466.5,-265 289.5,-265"/>
<polygon fill="none" stroke="black" points="289.5,-265 289.5,-288 466.5,-288 466.5,-265 289.5,-265"/>
<text text-anchor="start" x="361" y="-272.8" font-family="Times,serif" font-size="14.00">scale8</text>
<polygon fill="#dddddd" stroke="none" points="289.5,-242 289.5,-265 466.5,-265 466.5,-242 289.5,-242"/>
<polygon fill="none" stroke="black" points="289.5,-242 289.5,-265 466.5,-265 466.5,-242 289.5,-242"/>
<text text-anchor="start" x="349" y="-249.8" font-family="Times,serif" font-size="14.00">(256, 7, 7)</text>
<polygon fill="#6fe1da" stroke="none" points="289.5,-204 289.5,-242 370.5,-242 370.5,-204 289.5,-204"/>
<polygon fill="none" stroke="black" points="289.5,-204 289.5,-242 370.5,-242 370.5,-204 289.5,-204"/>
<text text-anchor="start" x="293.5" y="-226.8" font-family="Times,serif" font-size="14.00"> 231.211008 </text>
<text text-anchor="start" x="296" y="-211.8" font-family="Times,serif" font-size="14.00"> (MFLOPs) </text>
<polygon fill="#fee4fb" stroke="none" points="370.5,-204 370.5,-242 426.5,-242 426.5,-204 370.5,-204"/>
<polygon fill="none" stroke="black" points="370.5,-204 370.5,-242 426.5,-242 426.5,-204 370.5,-204"/>
<text text-anchor="start" x="375.5" y="-226.8" font-family="Times,serif" font-size="14.00"> 578.45 </text>
<text text-anchor="start" x="374.5" y="-211.8" font-family="Times,serif" font-size="14.00"> (MB/s) </text>
<polygon fill="#ffff58" stroke="none" points="426.5,-204 426.5,-242 466.5,-242 466.5,-204 426.5,-204"/>
<polygon fill="none" stroke="black" points="426.5,-204 426.5,-242 466.5,-242 466.5,-204 426.5,-204"/>
<text text-anchor="start" x="430.5" y="-226.8" font-family="Times,serif" font-size="14.00"> 9.27 </text>
<text text-anchor="start" x="431.5" y="-211.8" font-family="Times,serif" font-size="14.00"> (ms)</text>
</g>
<!-- scale7&#45;&gt;scale8 -->
<g id="edge15" class="edge"><title>scale7&#45;&gt;scale8</title>
<path fill="none" stroke="black" d="M377.5,-327.867C377.5,-319.634 377.5,-310.957 377.5,-302.465"/>
<polygon fill="black" stroke="black" points="381,-302.241 377.5,-292.241 374,-302.241 381,-302.241"/>
</g>
<!-- fc9 -->
<g id="node18" class="node"><title>fc9</title>
<polygon fill="#a3a3a3" stroke="none" points="286.5,-137 286.5,-160 469.5,-160 469.5,-137 286.5,-137"/>
<polygon fill="none" stroke="black" points="286.5,-137 286.5,-160 469.5,-160 469.5,-137 286.5,-137"/>
<text text-anchor="start" x="369" y="-144.8" font-family="Times,serif" font-size="14.00">fc9</text>
<polygon fill="#dddddd" stroke="none" points="286.5,-114 286.5,-137 469.5,-137 469.5,-114 286.5,-114"/>
<polygon fill="none" stroke="black" points="286.5,-114 286.5,-137 469.5,-137 469.5,-114 286.5,-114"/>
<text text-anchor="start" x="345.5" y="-121.8" font-family="Times,serif" font-size="14.00">(1470, 1, 1)</text>
<polygon fill="#a6eeeb" stroke="none" points="286.5,-76 286.5,-114 362.5,-114 362.5,-76 286.5,-76"/>
<polygon fill="none" stroke="black" points="286.5,-76 286.5,-114 362.5,-114 362.5,-76 286.5,-76"/>
<text text-anchor="start" x="295" y="-98.8" font-family="Times,serif" font-size="14.00"> 36.87936 </text>
<text text-anchor="start" x="290.5" y="-83.8" font-family="Times,serif" font-size="14.00"> (MFLOPs) </text>
<polygon fill="#fee3fb" stroke="none" points="362.5,-76 362.5,-114 422.5,-114 422.5,-76 362.5,-76"/>
<polygon fill="none" stroke="black" points="362.5,-76 362.5,-114 422.5,-114 422.5,-76 362.5,-76"/>
<text text-anchor="start" x="366.5" y="-98.8" font-family="Times,serif" font-size="14.00"> 2145.65 </text>
<text text-anchor="start" x="368.5" y="-83.8" font-family="Times,serif" font-size="14.00"> (MB/s) </text>
<polygon fill="#ffff00" stroke="none" points="422.5,-76 422.5,-114 469.5,-114 469.5,-76 422.5,-76"/>
<polygon fill="none" stroke="black" points="422.5,-76 422.5,-114 469.5,-114 469.5,-76 422.5,-76"/>
<text text-anchor="start" x="426.5" y="-98.8" font-family="Times,serif" font-size="14.00"> 16.40 </text>
<text text-anchor="start" x="431" y="-83.8" font-family="Times,serif" font-size="14.00"> (ms)</text>
</g>
<!-- scale8&#45;&gt;fc9 -->
<g id="edge16" class="edge"><title>scale8&#45;&gt;fc9</title>
<path fill="none" stroke="black" d="M377.5,-199.867C377.5,-191.634 377.5,-182.957 377.5,-174.465"/>
<polygon fill="black" stroke="black" points="381,-174.241 377.5,-164.241 374,-174.241 381,-174.241"/>
</g>
<!-- fc9&#45;&gt;Output -->
<g id="edge18" class="edge"><title>fc9&#45;&gt;Output</title>
<path fill="none" stroke="black" d="M347.935,-71.7292C341.874,-62.448 335.696,-52.9873 330.277,-44.6894"/>
<polygon fill="black" stroke="black" points="333.134,-42.6642 324.736,-36.2053 327.274,-46.4917 333.134,-42.6642"/>
</g>
<!-- Summary -->
<g id="node20" class="node"><title>Summary</title>
<polygon fill="#c60000" stroke="none" points="420.5,-2087.5 420.5,-2110.5 605.5,-2110.5 605.5,-2087.5 420.5,-2087.5"/>
<polygon fill="none" stroke="black" points="420.5,-2087.5 420.5,-2110.5 605.5,-2110.5 605.5,-2087.5 420.5,-2087.5"/>
<text text-anchor="start" x="485.5" y="-2095.3" font-family="Times,serif" font-size="14.00">Summary</text>
<polygon fill="#e2e2e2" stroke="none" points="420.5,-2064.5 420.5,-2087.5 605.5,-2087.5 605.5,-2064.5 420.5,-2064.5"/>
<polygon fill="none" stroke="black" points="420.5,-2064.5 420.5,-2087.5 605.5,-2087.5 605.5,-2064.5 420.5,-2064.5"/>
<text text-anchor="start" x="460" y="-2072.3" font-family="Times,serif" font-size="14.00">12 SHV Processors</text>
<polygon fill="#dadada" stroke="none" points="420.5,-2041.5 420.5,-2064.5 605.5,-2064.5 605.5,-2041.5 420.5,-2041.5"/>
<polygon fill="none" stroke="black" points="420.5,-2041.5 420.5,-2064.5 605.5,-2064.5 605.5,-2041.5 420.5,-2041.5"/>
<text text-anchor="start" x="442" y="-2049.3" font-family="Times,serif" font-size="14.00">Inference time 115.12 ms</text>
<polygon fill="#e2e2e2" stroke="none" points="420.5,-2018.5 420.5,-2041.5 605.5,-2041.5 605.5,-2018.5 420.5,-2018.5"/>
<polygon fill="none" stroke="black" points="420.5,-2018.5 420.5,-2041.5 605.5,-2041.5 605.5,-2018.5 420.5,-2018.5"/>
<text text-anchor="start" x="439" y="-2026.3" font-family="Times,serif" font-size="14.00">Bandwidth 896.80 MB/sec</text>
<polygon fill="#dadada" stroke="none" points="420.5,-1995.5 420.5,-2018.5 605.5,-2018.5 605.5,-1995.5 420.5,-1995.5"/>
<polygon fill="none" stroke="black" points="420.5,-1995.5 420.5,-2018.5 605.5,-2018.5 605.5,-1995.5 420.5,-1995.5"/>
<text text-anchor="start" x="424.5" y="-2003.3" font-family="Times,serif" font-size="14.00">This network is Compute bound</text>
</g>
</g>
</svg>
